<svg width="169" height="178" viewBox="0 0 169 178" fill="none" xmlns="http://www.w3.org/2000/svg">
<path fill-rule="evenodd" clip-rule="evenodd" d="M16.581 68.9233C17.5575 69.8832 19.1094 69.8684 20.0774 68.9057C31.6804 57.7456 43.8975 52.069 56.3541 51.9267C68.4835 51.7899 80.7374 57.0519 92.7599 67.4777C95.4323 69.7533 99.5631 74.4915 103.197 80.0857C100.148 84.4713 98.1162 89.6648 97.113 94.6683C95.6333 102.058 96.7107 108.853 99.1494 112.218C100.501 114.082 102.243 115.224 104.28 115.7C106.888 116.305 110.431 115.765 114.498 112.316C120.109 107.534 121.473 100.707 119.797 93.1929C118.911 89.2429 117.124 85.0978 114.897 81.1143C117.474 79.0579 120.679 77.8682 124.579 78.2965C132.836 79.1472 139.027 85.927 143.431 93.904C147.25 100.805 151.85 110.999 150.634 119.1C150.222 121.853 149.018 124.219 151.29 126.469C154.768 129.95 157.957 126.346 158.528 122.565C159.75 114.443 156.855 104.659 153.997 97.166C148.753 83.3773 138.913 70.9756 125.626 69.2659C119.397 68.493 114.111 70.1494 109.83 73.2271C105.766 67.5874 101.383 62.9214 98.5072 60.5796C84.2778 49.225 69.9571 43.9445 56.1013 44.7477C42.2592 45.5429 28.8343 52.3392 16.5635 65.4269C15.6035 66.4034 15.6045 67.9633 16.581 68.9233ZM108.876 91.0348C109.74 93.3264 110.324 95.5778 110.495 97.7187C110.708 100.441 110.183 102.966 108.061 104.76C107.702 105.059 107.264 105.477 106.904 105.777C106.634 104.831 106.166 102.972 106.159 101.434C106.16 98.0002 106.94 93.9147 108.507 90.1096C108.654 90.4284 108.772 90.7276 108.876 91.0348Z" fill="#4D2C5E"/>
<path fill-rule="evenodd" clip-rule="evenodd" d="M23.3792 63.4939C24.5098 60.9686 25.6022 58.2818 26.3815 55.7206C27.5805 51.7239 28.0947 48.0675 27.1086 45.4057C26.801 44.0779 25.4622 43.2536 24.1424 43.575C22.8146 43.8826 21.9904 45.2214 22.3118 46.5412C22.3798 47.1996 22.1501 47.8829 21.9327 48.651C21.4359 50.4615 20.3242 52.3517 19.1146 54.3903C17.5683 56.9904 15.7084 59.588 14.1217 61.991C12.678 64.1647 11.4742 66.1816 10.7083 67.7803C9.49882 70.2961 9.43332 72.4085 9.70702 73.6457C9.7834 73.9687 12.465 78.7725 17.0513 76.8589C18.691 76.1693 22.7544 74.2088 22.9552 74.1112C25.3965 72.7752 29.9313 70.3589 34.2503 69.0954C35.6151 68.6929 36.9328 68.336 38.1336 68.2853C38.1972 68.3955 38.2608 68.5056 38.3381 68.6078C39.4594 70.2002 41.6402 70.575 43.2405 69.4675C44.1275 68.937 45.2843 67.443 45.5939 66.5483C46.1876 64.8102 45.5267 63.4111 43.9045 62.2548C41.6947 60.685 38.498 60.2359 34.9043 60.5299C31.1274 60.8564 26.8481 62.1888 23.3792 63.4939ZM19.3902 71.5615C19.1224 72.0833 19.0314 72.4663 19.3927 72.5514C19.7974 72.6482 19.5281 71.9592 19.3902 71.5615Z" fill="#4D2C5E"/>
</svg>
