<svg width="34" height="16" viewBox="0 0 34 16" fill="none" xmlns="http://www.w3.org/2000/svg">
<g clip-path="url(#clip0_1_2440)">
<path d="M26.7726 0.8297L28.5772 4.48627C28.7027 4.74059 28.9453 4.91681 29.226 4.95753L33.2614 5.54393C33.9683 5.64672 34.2503 6.51514 33.739 7.01343L30.819 9.85966C30.6161 10.0576 30.5233 10.3429 30.5714 10.6223L31.2606 14.6413C31.3814 15.3452 30.6424 15.8819 30.0103 15.5498L26.4011 13.6524C26.1502 13.5206 25.8501 13.5206 25.5991 13.6524L21.99 15.5498C21.3578 15.8822 20.6189 15.3452 20.7397 14.6413L21.4289 10.6223C21.477 10.3429 21.3842 10.0576 21.1813 9.85966L18.2613 7.01343C17.75 6.51481 18.032 5.64639 18.7389 5.54393L22.7743 4.95753C23.055 4.91681 23.2976 4.74059 23.4231 4.48627L25.2277 0.8297C25.5434 0.189233 26.4566 0.189233 26.7726 0.8297Z" fill="#FFA135"/>
</g>
<g clip-path="url(#clip1_1_2440)">
<path d="M8.77261 0.8297L10.5772 4.48627C10.7027 4.74059 10.9453 4.91681 11.226 4.95753L15.2614 5.54393C15.9683 5.64672 16.2503 6.51514 15.739 7.01343L12.819 9.85966C12.6161 10.0576 12.5233 10.3429 12.5714 10.6223L13.2606 14.6413C13.3814 15.3452 12.6424 15.8819 12.0103 15.5498L8.40115 13.6524C8.15017 13.5206 7.85013 13.5206 7.59915 13.6524L3.98997 15.5498C3.35784 15.8822 2.61892 15.3452 2.73974 14.6413L3.42893 10.6223C3.47699 10.3429 3.38421 10.0576 3.18129 9.85966L0.261306 7.01343C-0.249999 6.51481 0.0320198 5.64639 0.738903 5.54393L4.77428 4.95753C5.05497 4.91681 5.2976 4.74059 5.42309 4.48627L7.22768 0.8297C7.54341 0.189233 8.45655 0.189233 8.77261 0.8297Z" fill="#FFA135"/>
</g>
<defs>
<clipPath id="clip0_1_2440">
<rect width="16" height="16" fill="white" transform="translate(18)"/>
</clipPath>
<clipPath id="clip1_1_2440">
<rect width="16" height="16" fill="white"/>
</clipPath>
</defs>
</svg>
