<svg width="88" height="16" viewBox="0 0 88 16" fill="none" xmlns="http://www.w3.org/2000/svg">
<g clip-path="url(#clip0_1_2524)">
<path d="M80.7726 0.8297L82.5772 4.48627C82.7027 4.74059 82.9454 4.91681 83.226 4.95753L87.2614 5.54393C87.9683 5.64672 88.2503 6.51514 87.739 7.01343L84.819 9.85966C84.6161 10.0576 84.5233 10.3429 84.5714 10.6223L85.2606 14.6413C85.3814 15.3452 84.6425 15.8819 84.0104 15.5498L80.4012 13.6524C80.1502 13.5206 79.8502 13.5206 79.5992 13.6524L75.99 15.5498C75.3579 15.8822 74.619 15.3452 74.7398 14.6413L75.429 10.6223C75.477 10.3429 75.3842 10.0576 75.1813 9.85966L72.2613 7.01343C71.75 6.51481 72.0321 5.64639 72.7389 5.54393L76.7743 4.95753C77.055 4.91681 77.2976 4.74059 77.4231 4.48627L79.2277 0.8297C79.5434 0.189233 80.4566 0.189233 80.7726 0.8297Z" fill="#F9D4AB"/>
</g>
<g clip-path="url(#clip1_1_2524)">
<path d="M62.7726 0.8297L64.5772 4.48627C64.7027 4.74059 64.9454 4.91681 65.226 4.95753L69.2614 5.54393C69.9683 5.64672 70.2503 6.51514 69.739 7.01343L66.819 9.85966C66.6161 10.0576 66.5233 10.3429 66.5714 10.6223L67.2606 14.6413C67.3814 15.3452 66.6425 15.8819 66.0104 15.5498L62.4012 13.6524C62.1502 13.5206 61.8502 13.5206 61.5992 13.6524L57.99 15.5498C57.3579 15.8822 56.619 15.3452 56.7398 14.6413L57.429 10.6223C57.477 10.3429 57.3842 10.0576 57.1813 9.85966L54.2613 7.01343C53.75 6.51481 54.0321 5.64639 54.7389 5.54393L58.7743 4.95753C59.055 4.91681 59.2976 4.74059 59.4231 4.48627L61.2277 0.8297C61.5434 0.189233 62.4566 0.189233 62.7726 0.8297Z" fill="#FFA135"/>
</g>
<g clip-path="url(#clip2_1_2524)">
<path d="M44.7726 0.8297L46.5772 4.48627C46.7027 4.74059 46.9454 4.91681 47.226 4.95753L51.2614 5.54393C51.9683 5.64672 52.2503 6.51514 51.739 7.01343L48.819 9.85966C48.6161 10.0576 48.5233 10.3429 48.5714 10.6223L49.2606 14.6413C49.3814 15.3452 48.6425 15.8819 48.0104 15.5498L44.4012 13.6524C44.1502 13.5206 43.8502 13.5206 43.5992 13.6524L39.99 15.5498C39.3579 15.8822 38.619 15.3452 38.7398 14.6413L39.429 10.6223C39.477 10.3429 39.3842 10.0576 39.1813 9.85966L36.2613 7.01343C35.75 6.51481 36.0321 5.64639 36.7389 5.54393L40.7743 4.95753C41.055 4.91681 41.2976 4.74059 41.4231 4.48627L43.2277 0.8297C43.5434 0.189233 44.4566 0.189233 44.7726 0.8297Z" fill="#FFA135"/>
</g>
<g clip-path="url(#clip3_1_2524)">
<path d="M26.7726 0.8297L28.5772 4.48627C28.7027 4.74059 28.9454 4.91681 29.226 4.95753L33.2614 5.54393C33.9683 5.64672 34.2503 6.51514 33.739 7.01343L30.819 9.85966C30.6161 10.0576 30.5233 10.3429 30.5714 10.6223L31.2606 14.6413C31.3814 15.3452 30.6425 15.8819 30.0104 15.5498L26.4012 13.6524C26.1502 13.5206 25.8502 13.5206 25.5992 13.6524L21.99 15.5498C21.3579 15.8822 20.619 15.3452 20.7398 14.6413L21.429 10.6223C21.477 10.3429 21.3842 10.0576 21.1813 9.85966L18.2613 7.01343C17.75 6.51481 18.0321 5.64639 18.7389 5.54393L22.7743 4.95753C23.055 4.91681 23.2976 4.74059 23.4231 4.48627L25.2277 0.8297C25.5434 0.189233 26.4566 0.189233 26.7726 0.8297Z" fill="#FFA135"/>
</g>
<g clip-path="url(#clip4_1_2524)">
<path d="M8.77264 0.8297L10.5772 4.48627C10.7027 4.74059 10.9454 4.91681 11.226 4.95753L15.2614 5.54393C15.9683 5.64672 16.2503 6.51514 15.739 7.01343L12.819 9.85966C12.6161 10.0576 12.5233 10.3429 12.5714 10.6223L13.2606 14.6413C13.3814 15.3452 12.6425 15.8819 12.0104 15.5498L8.40118 13.6524C8.1502 13.5206 7.85016 13.5206 7.59918 13.6524L3.99 15.5498C3.35787 15.8822 2.61895 15.3452 2.73977 14.6413L3.42896 10.6223C3.47702 10.3429 3.38424 10.0576 3.18132 9.85966L0.261337 7.01343C-0.249969 6.51481 0.0320503 5.64639 0.738934 5.54393L4.77431 4.95753C5.055 4.91681 5.29763 4.74059 5.42312 4.48627L7.22771 0.8297C7.54344 0.189233 8.45658 0.189233 8.77264 0.8297Z" fill="#FFA135"/>
</g>
<defs>
<clipPath id="clip0_1_2524">
<rect width="16" height="16" fill="white" transform="translate(72)"/>
</clipPath>
<clipPath id="clip1_1_2524">
<rect width="16" height="16" fill="white" transform="translate(54)"/>
</clipPath>
<clipPath id="clip2_1_2524">
<rect width="16" height="16" fill="white" transform="translate(36)"/>
</clipPath>
<clipPath id="clip3_1_2524">
<rect width="16" height="16" fill="white" transform="translate(18)"/>
</clipPath>
<clipPath id="clip4_1_2524">
<rect width="16" height="16" fill="white"/>
</clipPath>
</defs>
</svg>
