<svg width="374" height="28" viewBox="0 0 374 28" fill="none" xmlns="http://www.w3.org/2000/svg">
<path d="M26.968 17.52C27.992 16.6347 28.7973 15.9093 29.384 15.344C29.9813 14.768 30.4773 14.1707 30.872 13.552C31.2667 12.9333 31.464 12.3147 31.464 11.696C31.464 11.056 31.3093 10.5547 31 10.192C30.7013 9.82933 30.2267 9.648 29.576 9.648C28.9467 9.648 28.456 9.85067 28.104 10.256C27.7627 10.6507 27.5813 11.184 27.56 11.856H25.8C25.832 10.64 26.1947 9.712 26.888 9.072C27.592 8.42133 28.4827 8.096 29.56 8.096C30.7227 8.096 31.6293 8.416 32.28 9.056C32.9413 9.696 33.272 10.5493 33.272 11.616C33.272 12.384 33.0747 13.1253 32.68 13.84C32.296 14.544 31.832 15.1787 31.288 15.744C30.7547 16.2987 30.072 16.944 29.24 17.68L28.52 18.32H33.592V19.84H25.816V18.512L26.968 17.52ZM36.2024 17.52C37.2264 16.6347 38.0317 15.9093 38.6184 15.344C39.2157 14.768 39.7117 14.1707 40.1064 13.552C40.501 12.9333 40.6984 12.3147 40.6984 11.696C40.6984 11.056 40.5437 10.5547 40.2344 10.192C39.9357 9.82933 39.461 9.648 38.8104 9.648C38.181 9.648 37.6904 9.85067 37.3384 10.256C36.997 10.6507 36.8157 11.184 36.7944 11.856H35.0344C35.0664 10.64 35.429 9.712 36.1224 9.072C36.8264 8.42133 37.717 8.096 38.7944 8.096C39.957 8.096 40.8637 8.416 41.5144 9.056C42.1757 9.696 42.5064 10.5493 42.5064 11.616C42.5064 12.384 42.309 13.1253 41.9144 13.84C41.5304 14.544 41.0664 15.1787 40.5224 15.744C39.989 16.2987 39.3064 16.944 38.4744 17.68L37.7544 18.32H42.8264V19.84H35.0504V18.512L36.2024 17.52ZM49.2288 11.04C49.9008 11.04 50.4981 11.184 51.0208 11.472C51.5541 11.76 51.9701 12.1867 52.2688 12.752C52.5781 13.3173 52.7328 14 52.7328 14.8V20H50.9248V15.072C50.9248 14.2827 50.7274 13.68 50.3328 13.264C49.9381 12.8373 49.3994 12.624 48.7168 12.624C48.0341 12.624 47.4901 12.8373 47.0848 13.264C46.6901 13.68 46.4928 14.2827 46.4928 15.072V20H44.6688V8.16H46.4928V12.208C46.8021 11.8347 47.1914 11.5467 47.6608 11.344C48.1408 11.1413 48.6634 11.04 49.2288 11.04ZM56.8834 12.464C57.15 12.016 57.502 11.6693 57.9394 11.424C58.3874 11.168 58.9154 11.04 59.5234 11.04V12.928H59.0594C58.3447 12.928 57.8007 13.1093 57.4274 13.472C57.0647 13.8347 56.8834 14.464 56.8834 15.36V20H55.0594V11.184H56.8834V12.464ZM65.0843 11.216C65.1483 10.224 65.5269 9.45067 66.2203 8.896C66.9243 8.34133 67.8203 8.064 68.9083 8.064C69.6549 8.064 70.3003 8.19733 70.8443 8.464C71.3883 8.73067 71.7989 9.09333 72.0763 9.552C72.3536 10.0107 72.4923 10.528 72.4923 11.104C72.4923 11.7653 72.3163 12.3307 71.9643 12.8C71.6123 13.2693 71.1909 13.584 70.7003 13.744V13.808C71.3296 14 71.8203 14.352 72.1723 14.864C72.5243 15.3653 72.7003 16.0107 72.7003 16.8C72.7003 17.4293 72.5563 17.9893 72.2683 18.48C71.9803 18.9707 71.5536 19.36 70.9883 19.648C70.4229 19.9253 69.7456 20.064 68.9563 20.064C67.8043 20.064 66.8549 19.7707 66.1083 19.184C65.3723 18.5867 64.9776 17.7333 64.9243 16.624H66.6843C66.7269 17.1893 66.9456 17.6533 67.3403 18.016C67.7349 18.368 68.2683 18.544 68.9403 18.544C69.5909 18.544 70.0923 18.368 70.4443 18.016C70.7963 17.6533 70.9723 17.1893 70.9723 16.624C70.9723 15.8773 70.7323 15.3493 70.2523 15.04C69.7829 14.72 69.0576 14.56 68.0763 14.56H67.6603V13.056H68.0923C68.9563 13.0453 69.6123 12.9013 70.0603 12.624C70.5189 12.3467 70.7483 11.9093 70.7483 11.312C70.7483 10.8 70.5829 10.3947 70.2523 10.096C69.9216 9.78667 69.4523 9.632 68.8443 9.632C68.2469 9.632 67.7829 9.78667 67.4523 10.096C67.1216 10.3947 66.9243 10.768 66.8603 11.216H65.0843ZM74.6163 14.016C74.6163 12.1707 74.9256 10.7307 75.5443 9.696C76.1736 8.65067 77.2509 8.128 78.7763 8.128C80.3016 8.128 81.3736 8.65067 81.9923 9.696C82.6216 10.7307 82.9363 12.1707 82.9363 14.016C82.9363 15.8827 82.6216 17.344 81.9923 18.4C81.3736 19.4453 80.3016 19.968 78.7763 19.968C77.2509 19.968 76.1736 19.4453 75.5443 18.4C74.9256 17.344 74.6163 15.8827 74.6163 14.016ZM81.1443 14.016C81.1443 13.152 81.0856 12.4213 80.9683 11.824C80.8616 11.2267 80.6376 10.7413 80.2963 10.368C79.9549 9.984 79.4483 9.792 78.7763 9.792C78.1043 9.792 77.5976 9.984 77.2563 10.368C76.9149 10.7413 76.6856 11.2267 76.5683 11.824C76.4616 12.4213 76.4083 13.152 76.4083 14.016C76.4083 14.912 76.4616 15.664 76.5683 16.272C76.6749 16.88 76.8989 17.3707 77.2403 17.744C77.5923 18.1173 78.1043 18.304 78.7763 18.304C79.4483 18.304 79.9549 18.1173 80.2963 17.744C80.6483 17.3707 80.8776 16.88 80.9843 16.272C81.0909 15.664 81.1443 14.912 81.1443 14.016ZM95.7783 11.04C96.4716 11.04 97.0903 11.184 97.6343 11.472C98.1889 11.76 98.6209 12.1867 98.9303 12.752C99.2503 13.3173 99.4103 14 99.4103 14.8V20H97.6023V15.072C97.6023 14.2827 97.4049 13.68 97.0103 13.264C96.6156 12.8373 96.0769 12.624 95.3943 12.624C94.7116 12.624 94.1676 12.8373 93.7623 13.264C93.3676 13.68 93.1703 14.2827 93.1703 15.072V20H91.3623V15.072C91.3623 14.2827 91.1649 13.68 90.7703 13.264C90.3756 12.8373 89.8369 12.624 89.1543 12.624C88.4716 12.624 87.9276 12.8373 87.5223 13.264C87.1276 13.68 86.9303 14.2827 86.9303 15.072V20H85.1063V11.184H86.9303V12.192C87.2289 11.8293 87.6076 11.5467 88.0663 11.344C88.5249 11.1413 89.0156 11.04 89.5383 11.04C90.2423 11.04 90.8716 11.1893 91.4263 11.488C91.9809 11.7867 92.4076 12.2187 92.7063 12.784C92.9729 12.2507 93.3889 11.8293 93.9543 11.52C94.5196 11.2 95.1276 11.04 95.7783 11.04ZM102.659 10.016C102.329 10.016 102.051 9.904 101.827 9.68C101.603 9.456 101.491 9.17867 101.491 8.848C101.491 8.51733 101.603 8.24 101.827 8.016C102.051 7.792 102.329 7.68 102.659 7.68C102.979 7.68 103.251 7.792 103.475 8.016C103.699 8.24 103.811 8.51733 103.811 8.848C103.811 9.17867 103.699 9.456 103.475 9.68C103.251 9.904 102.979 10.016 102.659 10.016ZM103.555 11.184V20H101.731V11.184H103.555ZM110.398 11.04C111.091 11.04 111.71 11.184 112.254 11.472C112.809 11.76 113.241 12.1867 113.55 12.752C113.859 13.3173 114.014 14 114.014 14.8V20H112.206V15.072C112.206 14.2827 112.009 13.68 111.614 13.264C111.219 12.8373 110.681 12.624 109.998 12.624C109.315 12.624 108.771 12.8373 108.366 13.264C107.971 13.68 107.774 14.2827 107.774 15.072V20H105.95V11.184H107.774V12.192C108.073 11.8293 108.451 11.5467 108.91 11.344C109.379 11.1413 109.875 11.04 110.398 11.04Z" fill="#ACACAC"/>
<g clip-path="url(#clip0_1_2502)">
<path d="M9.50014 5C4.26193 5 0.000488281 9.26167 0.000488281 14.4999C0.000488281 19.7383 4.26193 24 9.50014 24C14.7384 24 19 19.7383 19 14.4999C19 9.26167 14.7381 5 9.50014 5ZM9.50014 22.6265C5.0194 22.6265 1.37374 18.9809 1.37374 14.4999C1.37374 10.0189 5.01917 6.37348 9.50014 6.37348C13.9811 6.37348 17.6266 10.0189 17.6266 14.4999C17.6266 18.9809 13.9811 22.6265 9.50014 22.6265Z" fill="black"/>
<path d="M12.2487 15.3743C12.245 15.3743 12.2418 15.3743 12.2382 15.3743L10.1866 15.405V10.0361C10.1866 9.65678 9.87922 9.34935 9.49991 9.34935C9.1206 9.34935 8.81317 9.65678 8.81317 10.0361V16.1023C8.81317 16.1037 8.81363 16.105 8.81363 16.1064C8.81363 16.1087 8.81317 16.1107 8.81317 16.1126C8.81363 16.1405 8.81889 16.1668 8.82256 16.1936C8.82485 16.2103 8.82508 16.2275 8.82828 16.244C8.83446 16.2735 8.84476 16.301 8.8546 16.3287C8.85964 16.3431 8.86285 16.3582 8.8688 16.3719C8.8807 16.4001 8.89672 16.4257 8.91206 16.4521C8.91916 16.4637 8.92442 16.4765 8.93198 16.488C8.94937 16.5134 8.97021 16.5361 8.99081 16.5592C8.99951 16.5688 9.0066 16.5798 9.01576 16.5892C9.03796 16.6111 9.06292 16.6297 9.08787 16.6487C9.09794 16.6562 9.10687 16.6654 9.11717 16.6725C9.14418 16.6908 9.17371 16.7052 9.20324 16.7194C9.21354 16.7242 9.2227 16.7311 9.23323 16.7354C9.26756 16.7499 9.30419 16.7599 9.34127 16.7689C9.34814 16.7705 9.35455 16.7737 9.36165 16.7751C9.40606 16.784 9.45207 16.789 9.49922 16.789C9.50266 16.789 9.50632 16.789 9.50975 16.789L12.2585 16.7478C12.6376 16.7421 12.9405 16.4299 12.935 16.0508C12.9297 15.6751 12.6232 15.3743 12.2487 15.3743Z" fill="black"/>
</g>
<path d="M165.928 11.216C165.992 10.224 166.371 9.45067 167.064 8.896C167.768 8.34133 168.664 8.064 169.752 8.064C170.499 8.064 171.144 8.19733 171.688 8.464C172.232 8.73067 172.643 9.09333 172.92 9.552C173.197 10.0107 173.336 10.528 173.336 11.104C173.336 11.7653 173.16 12.3307 172.808 12.8C172.456 13.2693 172.035 13.584 171.544 13.744V13.808C172.173 14 172.664 14.352 173.016 14.864C173.368 15.3653 173.544 16.0107 173.544 16.8C173.544 17.4293 173.4 17.9893 173.112 18.48C172.824 18.9707 172.397 19.36 171.832 19.648C171.267 19.9253 170.589 20.064 169.8 20.064C168.648 20.064 167.699 19.7707 166.952 19.184C166.216 18.5867 165.821 17.7333 165.768 16.624H167.528C167.571 17.1893 167.789 17.6533 168.184 18.016C168.579 18.368 169.112 18.544 169.784 18.544C170.435 18.544 170.936 18.368 171.288 18.016C171.64 17.6533 171.816 17.1893 171.816 16.624C171.816 15.8773 171.576 15.3493 171.096 15.04C170.627 14.72 169.901 14.56 168.92 14.56H168.504V13.056H168.936C169.8 13.0453 170.456 12.9013 170.904 12.624C171.363 12.3467 171.592 11.9093 171.592 11.312C171.592 10.8 171.427 10.3947 171.096 10.096C170.765 9.78667 170.296 9.632 169.688 9.632C169.091 9.632 168.627 9.78667 168.296 10.096C167.965 10.3947 167.768 10.768 167.704 11.216H165.928ZM175.236 17.568V16.192L180.612 8.48H182.82V15.984H184.308V17.568H182.82V20H181.028V17.568H175.236ZM181.108 10.336L177.332 15.984H181.108V10.336ZM189.608 14.416C189.608 13.328 189.858 12.352 190.36 11.488C190.872 10.624 191.56 9.952 192.424 9.472C193.298 8.98133 194.253 8.736 195.288 8.736C196.472 8.736 197.522 9.02933 198.44 9.616C199.368 10.192 200.04 11.0133 200.456 12.08H198.264C197.976 11.4933 197.576 11.056 197.064 10.768C196.552 10.48 195.96 10.336 195.288 10.336C194.552 10.336 193.896 10.5013 193.32 10.832C192.744 11.1627 192.29 11.6373 191.96 12.256C191.64 12.8747 191.48 13.5947 191.48 14.416C191.48 15.2373 191.64 15.9573 191.96 16.576C192.29 17.1947 192.744 17.6747 193.32 18.016C193.896 18.3467 194.552 18.512 195.288 18.512C195.96 18.512 196.552 18.368 197.064 18.08C197.576 17.792 197.976 17.3547 198.264 16.768H200.456C200.04 17.8347 199.368 18.656 198.44 19.232C197.522 19.808 196.472 20.096 195.288 20.096C194.242 20.096 193.288 19.856 192.424 19.376C191.56 18.8853 190.872 18.208 190.36 17.344C189.858 16.48 189.608 15.504 189.608 14.416ZM206.415 20.144C205.583 20.144 204.831 19.9573 204.159 19.584C203.487 19.2 202.959 18.6667 202.575 17.984C202.191 17.2907 201.999 16.4907 201.999 15.584C201.999 14.688 202.196 13.8933 202.591 13.2C202.985 12.5067 203.524 11.9733 204.207 11.6C204.889 11.2267 205.652 11.04 206.495 11.04C207.337 11.04 208.1 11.2267 208.783 11.6C209.465 11.9733 210.004 12.5067 210.399 13.2C210.793 13.8933 210.991 14.688 210.991 15.584C210.991 16.48 210.788 17.2747 210.383 17.968C209.977 18.6613 209.423 19.2 208.719 19.584C208.025 19.9573 207.257 20.144 206.415 20.144ZM206.415 18.56C206.884 18.56 207.321 18.448 207.727 18.224C208.143 18 208.479 17.664 208.735 17.216C208.991 16.768 209.119 16.224 209.119 15.584C209.119 14.944 208.996 14.4053 208.751 13.968C208.505 13.52 208.18 13.184 207.775 12.96C207.369 12.736 206.932 12.624 206.463 12.624C205.993 12.624 205.556 12.736 205.151 12.96C204.756 13.184 204.441 13.52 204.207 13.968C203.972 14.4053 203.855 14.944 203.855 15.584C203.855 16.5333 204.095 17.2693 204.575 17.792C205.065 18.304 205.679 18.56 206.415 18.56ZM220.778 11.184V20H218.954V18.96C218.666 19.3227 218.287 19.6107 217.818 19.824C217.359 20.0267 216.868 20.128 216.346 20.128C215.652 20.128 215.028 19.984 214.474 19.696C213.93 19.408 213.498 18.9813 213.178 18.416C212.868 17.8507 212.714 17.168 212.714 16.368V11.184H214.522V16.096C214.522 16.8853 214.719 17.4933 215.114 17.92C215.508 18.336 216.047 18.544 216.73 18.544C217.412 18.544 217.951 18.336 218.346 17.92C218.751 17.4933 218.954 16.8853 218.954 16.096V11.184H220.778ZM225.008 12.464C225.275 12.016 225.627 11.6693 226.064 11.424C226.512 11.168 227.04 11.04 227.648 11.04V12.928H227.184C226.47 12.928 225.926 13.1093 225.552 13.472C225.19 13.8347 225.008 14.464 225.008 15.36V20H223.184V11.184H225.008V12.464ZM232.525 20.144C231.832 20.144 231.208 20.0213 230.653 19.776C230.109 19.52 229.677 19.1787 229.357 18.752C229.037 18.3147 228.866 17.8293 228.845 17.296H230.733C230.765 17.6693 230.941 17.984 231.261 18.24C231.592 18.4853 232.002 18.608 232.493 18.608C233.005 18.608 233.4 18.512 233.677 18.32C233.965 18.1173 234.109 17.8613 234.109 17.552C234.109 17.2213 233.949 16.976 233.629 16.816C233.32 16.656 232.824 16.48 232.141 16.288C231.48 16.1067 230.941 15.9307 230.525 15.76C230.109 15.5893 229.746 15.328 229.437 14.976C229.138 14.624 228.989 14.16 228.989 13.584C228.989 13.1147 229.128 12.688 229.405 12.304C229.682 11.9093 230.077 11.6 230.589 11.376C231.112 11.152 231.709 11.04 232.381 11.04C233.384 11.04 234.189 11.296 234.797 11.808C235.416 12.3093 235.746 12.9973 235.789 13.872H233.965C233.933 13.4773 233.773 13.1627 233.485 12.928C233.197 12.6933 232.808 12.576 232.317 12.576C231.837 12.576 231.469 12.6667 231.213 12.848C230.957 13.0293 230.829 13.2693 230.829 13.568C230.829 13.8027 230.914 14 231.085 14.16C231.256 14.32 231.464 14.448 231.709 14.544C231.954 14.6293 232.317 14.7413 232.797 14.88C233.437 15.0507 233.96 15.2267 234.365 15.408C234.781 15.5787 235.138 15.8347 235.437 16.176C235.736 16.5173 235.89 16.9707 235.901 17.536C235.901 18.0373 235.762 18.4853 235.485 18.88C235.208 19.2747 234.813 19.584 234.301 19.808C233.8 20.032 233.208 20.144 232.525 20.144ZM245.952 15.376C245.952 15.7067 245.931 16.0053 245.888 16.272H239.152C239.205 16.976 239.467 17.5413 239.936 17.968C240.405 18.3947 240.981 18.608 241.664 18.608C242.645 18.608 243.339 18.1973 243.744 17.376H245.712C245.445 18.1867 244.96 18.8533 244.256 19.376C243.563 19.888 242.699 20.144 241.664 20.144C240.821 20.144 240.064 19.9573 239.392 19.584C238.731 19.2 238.208 18.6667 237.824 17.984C237.451 17.2907 237.264 16.4907 237.264 15.584C237.264 14.6773 237.445 13.8827 237.808 13.2C238.181 12.5067 238.699 11.9733 239.36 11.6C240.032 11.2267 240.8 11.04 241.664 11.04C242.496 11.04 243.237 11.2213 243.888 11.584C244.539 11.9467 245.045 12.4587 245.408 13.12C245.771 13.7707 245.952 14.5227 245.952 15.376ZM244.048 14.8C244.037 14.128 243.797 13.5893 243.328 13.184C242.859 12.7787 242.277 12.576 241.584 12.576C240.955 12.576 240.416 12.7787 239.968 13.184C239.52 13.5787 239.253 14.1173 239.168 14.8H244.048ZM250.947 20.144C250.254 20.144 249.63 20.0213 249.075 19.776C248.531 19.52 248.099 19.1787 247.779 18.752C247.459 18.3147 247.288 17.8293 247.267 17.296H249.155C249.187 17.6693 249.363 17.984 249.683 18.24C250.014 18.4853 250.424 18.608 250.915 18.608C251.427 18.608 251.822 18.512 252.099 18.32C252.387 18.1173 252.531 17.8613 252.531 17.552C252.531 17.2213 252.371 16.976 252.051 16.816C251.742 16.656 251.246 16.48 250.563 16.288C249.902 16.1067 249.363 15.9307 248.947 15.76C248.531 15.5893 248.168 15.328 247.859 14.976C247.56 14.624 247.411 14.16 247.411 13.584C247.411 13.1147 247.55 12.688 247.827 12.304C248.104 11.9093 248.499 11.6 249.011 11.376C249.534 11.152 250.131 11.04 250.803 11.04C251.806 11.04 252.611 11.296 253.219 11.808C253.838 12.3093 254.168 12.9973 254.211 13.872H252.387C252.355 13.4773 252.195 13.1627 251.907 12.928C251.619 12.6933 251.23 12.576 250.739 12.576C250.259 12.576 249.891 12.6667 249.635 12.848C249.379 13.0293 249.251 13.2693 249.251 13.568C249.251 13.8027 249.336 14 249.507 14.16C249.678 14.32 249.886 14.448 250.131 14.544C250.376 14.6293 250.739 14.7413 251.219 14.88C251.859 15.0507 252.382 15.2267 252.787 15.408C253.203 15.5787 253.56 15.8347 253.859 16.176C254.158 16.5173 254.312 16.9707 254.323 17.536C254.323 18.0373 254.184 18.4853 253.907 18.88C253.63 19.2747 253.235 19.584 252.723 19.808C252.222 20.032 251.63 20.144 250.947 20.144Z" fill="#ACACAC"/>
<path d="M135.25 5.5C133.455 5.5 132 6.95508 132 8.75V19.25C132 21.0449 133.455 22.5 135.25 22.5H145.752C147.547 22.5 149.002 21.0449 149.002 19.25V17.6707L153.543 20.7824C154.373 21.3508 155.5 20.7568 155.5 19.7512V8.24842C155.5 7.24298 154.373 6.64898 153.544 7.21708L149.002 10.3272V8.75C149.002 6.95508 147.547 5.5 145.752 5.5H135.25ZM149.002 15.8524V12.1452L154 8.72263V19.2769L149.002 15.8524ZM147.502 8.75V19.25C147.502 20.2165 146.719 21 145.752 21H135.25C134.283 21 133.5 20.2165 133.5 19.25V8.75C133.5 7.7835 134.283 7 135.25 7H145.752C146.719 7 147.502 7.7835 147.502 8.75Z" fill="#212121"/>
<path d="M298.968 17.52C299.992 16.6347 300.797 15.9093 301.384 15.344C301.981 14.768 302.477 14.1707 302.872 13.552C303.267 12.9333 303.464 12.3147 303.464 11.696C303.464 11.056 303.309 10.5547 303 10.192C302.701 9.82933 302.227 9.648 301.576 9.648C300.947 9.648 300.456 9.85067 300.104 10.256C299.763 10.6507 299.581 11.184 299.56 11.856H297.8C297.832 10.64 298.195 9.712 298.888 9.072C299.592 8.42133 300.483 8.096 301.56 8.096C302.723 8.096 303.629 8.416 304.28 9.056C304.941 9.696 305.272 10.5493 305.272 11.616C305.272 12.384 305.075 13.1253 304.68 13.84C304.296 14.544 303.832 15.1787 303.288 15.744C302.755 16.2987 302.072 16.944 301.24 17.68L300.52 18.32H305.592V19.84H297.816V18.512L298.968 17.52ZM314.714 9.904H309.354V13.088C309.578 12.7893 309.909 12.5387 310.346 12.336C310.794 12.1333 311.269 12.032 311.77 12.032C312.666 12.032 313.392 12.224 313.946 12.608C314.512 12.992 314.912 13.4773 315.146 14.064C315.392 14.6507 315.514 15.2693 315.514 15.92C315.514 16.7093 315.36 17.4133 315.05 18.032C314.752 18.64 314.298 19.12 313.69 19.472C313.093 19.824 312.357 20 311.482 20C310.32 20 309.386 19.712 308.682 19.136C307.978 18.56 307.557 17.7973 307.418 16.848H309.194C309.312 17.3493 309.573 17.7493 309.978 18.048C310.384 18.336 310.89 18.48 311.498 18.48C312.256 18.48 312.821 18.2507 313.194 17.792C313.578 17.3333 313.77 16.7253 313.77 15.968C313.77 15.2 313.578 14.6133 313.194 14.208C312.81 13.792 312.245 13.584 311.498 13.584C310.976 13.584 310.533 13.7173 310.17 13.984C309.818 14.24 309.562 14.592 309.402 15.04H307.674V8.304H314.714V9.904ZM317.413 14.016C317.413 12.1707 317.722 10.7307 318.341 9.696C318.97 8.65067 320.048 8.128 321.573 8.128C323.098 8.128 324.17 8.65067 324.789 9.696C325.418 10.7307 325.733 12.1707 325.733 14.016C325.733 15.8827 325.418 17.344 324.789 18.4C324.17 19.4453 323.098 19.968 321.573 19.968C320.048 19.968 318.97 19.4453 318.341 18.4C317.722 17.344 317.413 15.8827 317.413 14.016ZM323.941 14.016C323.941 13.152 323.882 12.4213 323.765 11.824C323.658 11.2267 323.434 10.7413 323.093 10.368C322.752 9.984 322.245 9.792 321.573 9.792C320.901 9.792 320.394 9.984 320.053 10.368C319.712 10.7413 319.482 11.2267 319.365 11.824C319.258 12.4213 319.205 13.152 319.205 14.016C319.205 14.912 319.258 15.664 319.365 16.272C319.472 16.88 319.696 17.3707 320.037 17.744C320.389 18.1173 320.901 18.304 321.573 18.304C322.245 18.304 322.752 18.1173 323.093 17.744C323.445 17.3707 323.674 16.88 323.781 16.272C323.888 15.664 323.941 14.912 323.941 14.016ZM335.723 20.112C334.977 20.112 334.305 19.984 333.707 19.728C333.11 19.4613 332.641 19.088 332.299 18.608C331.958 18.128 331.787 17.568 331.787 16.928H333.739C333.782 17.408 333.969 17.8027 334.299 18.112C334.641 18.4213 335.115 18.576 335.723 18.576C336.353 18.576 336.843 18.4267 337.195 18.128C337.547 17.8187 337.723 17.424 337.723 16.944C337.723 16.5707 337.611 16.2667 337.387 16.032C337.174 15.7973 336.902 15.616 336.571 15.488C336.251 15.36 335.803 15.2213 335.227 15.072C334.502 14.88 333.91 14.688 333.451 14.496C333.003 14.2933 332.619 13.984 332.299 13.568C331.979 13.152 331.819 12.5973 331.819 11.904C331.819 11.264 331.979 10.704 332.299 10.224C332.619 9.744 333.067 9.376 333.643 9.12C334.219 8.864 334.886 8.736 335.643 8.736C336.721 8.736 337.601 9.008 338.283 9.552C338.977 10.0853 339.361 10.8213 339.435 11.76H337.419C337.387 11.3547 337.195 11.008 336.843 10.72C336.491 10.432 336.027 10.288 335.451 10.288C334.929 10.288 334.502 10.4213 334.171 10.688C333.841 10.9547 333.675 11.3387 333.675 11.84C333.675 12.1813 333.777 12.464 333.979 12.688C334.193 12.9013 334.459 13.072 334.779 13.2C335.099 13.328 335.537 13.4667 336.091 13.616C336.827 13.8187 337.425 14.0213 337.883 14.224C338.353 14.4267 338.747 14.7413 339.067 15.168C339.398 15.584 339.563 16.144 339.563 16.848C339.563 17.4133 339.409 17.9467 339.099 18.448C338.801 18.9493 338.358 19.3547 337.771 19.664C337.195 19.9627 336.513 20.112 335.723 20.112ZM341.108 15.552C341.108 14.6667 341.289 13.8827 341.652 13.2C342.025 12.5173 342.526 11.9893 343.156 11.616C343.796 11.232 344.5 11.04 345.268 11.04C345.961 11.04 346.564 11.1787 347.076 11.456C347.598 11.7227 348.014 12.0587 348.324 12.464V11.184H350.164V20H348.324V18.688C348.014 19.104 347.593 19.4507 347.06 19.728C346.526 20.0053 345.918 20.144 345.236 20.144C344.478 20.144 343.785 19.952 343.156 19.568C342.526 19.1733 342.025 18.6293 341.652 17.936C341.289 17.232 341.108 16.4373 341.108 15.552ZM348.324 15.584C348.324 14.976 348.196 14.448 347.94 14C347.694 13.552 347.369 13.2107 346.964 12.976C346.558 12.7413 346.121 12.624 345.652 12.624C345.182 12.624 344.745 12.7413 344.34 12.976C343.934 13.2 343.604 13.536 343.348 13.984C343.102 14.4213 342.98 14.944 342.98 15.552C342.98 16.16 343.102 16.6933 343.348 17.152C343.604 17.6107 343.934 17.9627 344.34 18.208C344.756 18.4427 345.193 18.56 345.652 18.56C346.121 18.56 346.558 18.4427 346.964 18.208C347.369 17.9733 347.694 17.632 347.94 17.184C348.196 16.7253 348.324 16.192 348.324 15.584ZM354.383 8.16V20H352.559V8.16H354.383ZM364.858 15.376C364.858 15.7067 364.837 16.0053 364.794 16.272H358.058C358.111 16.976 358.373 17.5413 358.842 17.968C359.311 18.3947 359.887 18.608 360.57 18.608C361.551 18.608 362.245 18.1973 362.65 17.376H364.618C364.351 18.1867 363.866 18.8533 363.162 19.376C362.469 19.888 361.605 20.144 360.57 20.144C359.727 20.144 358.97 19.9573 358.298 19.584C357.637 19.2 357.114 18.6667 356.73 17.984C356.357 17.2907 356.17 16.4907 356.17 15.584C356.17 14.6773 356.351 13.8827 356.714 13.2C357.087 12.5067 357.605 11.9733 358.266 11.6C358.938 11.2267 359.706 11.04 360.57 11.04C361.402 11.04 362.143 11.2213 362.794 11.584C363.445 11.9467 363.951 12.4587 364.314 13.12C364.677 13.7707 364.858 14.5227 364.858 15.376ZM362.954 14.8C362.943 14.128 362.703 13.5893 362.234 13.184C361.765 12.7787 361.183 12.576 360.49 12.576C359.861 12.576 359.322 12.7787 358.874 13.184C358.426 13.5787 358.159 14.1173 358.074 14.8H362.954ZM369.853 20.144C369.16 20.144 368.536 20.0213 367.981 19.776C367.437 19.52 367.005 19.1787 366.685 18.752C366.365 18.3147 366.194 17.8293 366.173 17.296H368.061C368.093 17.6693 368.269 17.984 368.589 18.24C368.92 18.4853 369.33 18.608 369.821 18.608C370.333 18.608 370.728 18.512 371.005 18.32C371.293 18.1173 371.437 17.8613 371.437 17.552C371.437 17.2213 371.277 16.976 370.957 16.816C370.648 16.656 370.152 16.48 369.469 16.288C368.808 16.1067 368.269 15.9307 367.853 15.76C367.437 15.5893 367.074 15.328 366.765 14.976C366.466 14.624 366.317 14.16 366.317 13.584C366.317 13.1147 366.456 12.688 366.733 12.304C367.01 11.9093 367.405 11.6 367.917 11.376C368.44 11.152 369.037 11.04 369.709 11.04C370.712 11.04 371.517 11.296 372.125 11.808C372.744 12.3093 373.074 12.9973 373.117 13.872H371.293C371.261 13.4773 371.101 13.1627 370.813 12.928C370.525 12.6933 370.136 12.576 369.645 12.576C369.165 12.576 368.797 12.6667 368.541 12.848C368.285 13.0293 368.157 13.2693 368.157 13.568C368.157 13.8027 368.242 14 368.413 14.16C368.584 14.32 368.792 14.448 369.037 14.544C369.282 14.6293 369.645 14.7413 370.125 14.88C370.765 15.0507 371.288 15.2267 371.693 15.408C372.109 15.5787 372.466 15.8347 372.765 16.176C373.064 16.5173 373.218 16.9707 373.229 17.536C373.229 18.0373 373.09 18.4853 372.813 18.88C372.536 19.2747 372.141 19.584 371.629 19.808C371.128 20.032 370.536 20.144 369.853 20.144Z" fill="#ACACAC"/>
<g clip-path="url(#clip1_1_2502)">
<path d="M286.896 17.0023C286.499 17.0023 286.179 17.3223 286.179 17.7195V21.1789H271.821V17.7195C271.821 17.3223 271.501 17.0023 271.104 17.0023C270.707 17.0023 270.387 17.3223 270.387 17.7195V21.8961C270.387 22.2934 270.707 22.6133 271.104 22.6133H286.896C287.293 22.6133 287.613 22.2934 287.613 21.8961V17.7195C287.613 17.3223 287.293 17.0023 286.896 17.0023Z" fill="black"/>
<path d="M278.473 17.8531C278.877 18.2609 279.373 18.0359 279.524 17.8531L283.648 13.4164C283.918 13.1246 283.901 12.6711 283.609 12.4004C283.317 12.1297 282.864 12.1473 282.596 12.4391L279.717 15.5363V6.21289C279.717 5.81563 279.397 5.4957 279 5.4957C278.603 5.4957 278.283 5.81563 278.283 6.21289V15.5398L275.404 12.4426C275.133 12.1508 274.679 12.1367 274.388 12.4039C274.096 12.6746 274.082 13.1281 274.349 13.4199L278.473 17.8531Z" fill="black"/>
</g>
<defs>
<clipPath id="clip0_1_2502">
<rect width="19" height="19" fill="white" transform="translate(0 5)"/>
</clipPath>
<clipPath id="clip1_1_2502">
<rect width="18" height="18" fill="white" transform="translate(270 5)"/>
</clipPath>
</defs>
</svg>
